<svg height='300px' width='300px'  fill="#FFFFFF" xmlns="http://www.w3.org/2000/svg" xmlns:xlink="http://www.w3.org/1999/xlink" version="1.1" x="0px" y="0px" viewBox="0 0 128 128" style="enable-background:new 0 0 128 128;" xml:space="preserve"><path d="M116.1,85.3c-4.7-7.6-13.2-12.6-22.8-12.5c-1.7,0-3.6,0.2-5.5,0.5c-2.6,0.6-5.1,1.5-7.5,2.9h0c-4.4,2.5-8.1,6.2-10.5,10.7  L50.3,75.7c2.1-3.6,3.3-7.6,3.3-11.7c0-4.1-1.2-8.3-3.3-11.7l20.2-11.6c1.9,3.8,4.6,7,7.9,9.5c3,2.3,6.5,3.9,10.3,4.7  c1.7,0.3,3.6,0.5,5.5,0.5c14.6,0,26.7-12.1,26.7-26.7S108.9,2,94.2,2S67.5,14.1,67.5,28.7V29c0,1.7,0.2,3.4,0.6,5.1L46,46.8  c-4.3-4-9.8-6-15.7-6C17.6,40.8,7.1,51.3,7.1,64c0,12.7,10.5,23.2,23.2,23.2c5.9,0,11.4-2.2,15.7-6l21.4,12.4  c-0.4,1.9-0.6,3.7-0.6,5.7c0,2.1,0.2,4.1,0.7,6c0,0,0,0,0,0c0.8,3.4,2.3,6.6,4.3,9.4c4.8,6.8,12.8,11.2,21.7,11.2  c14.6,0,26.7-12.1,26.7-26.7c0-5-1.4-9.7-3.8-13.7C116.2,85.5,116.1,85.4,116.1,85.3z"></path></svg>